<svg width="200" height="200" viewBox="0 0 200 200" fill="none" xmlns="http://www.w3.org/2000/svg">
<path d="M83.4282 9.43002C82.2082 9.65002 80.9881 9.89002 79.7881 10.15C78.9781 10.33 78.4082 11.05 78.4082 11.88V15.54C78.4082 16.67 79.4582 17.51 80.5582 17.26C81.7182 17 82.8782 16.76 84.0582 16.54C84.8982 16.38 85.5182 15.66 85.5182 14.8V11.17C85.5182 10.07 84.5182 9.24002 83.4282 9.43002Z" fill="#DA5225"/>
<path d="M110.039 13.3V10.56C110.039 9.42 109.169 8.47999 108.039 8.37999C105.279 8.12999 102.489 8 99.6588 8C97.2488 8 94.8687 8.1 92.5087 8.28C91.3587 8.37 90.4688 9.32 90.4688 10.47V13.21C90.4688 14.49 91.5587 15.49 92.8387 15.39C95.0887 15.21 97.3587 15.11 99.6487 15.11C102.349 15.11 105.009 15.24 107.639 15.49C108.939 15.6 110.039 14.59 110.039 13.3Z" fill="#DA5225"/>
<path d="M120.678 10.42C119.398 10.12 118.108 9.85003 116.808 9.60003C115.868 9.42003 114.998 10.13 114.998 11.09V15.24C114.998 15.97 115.518 16.58 116.228 16.72C117.488 16.97 118.738 17.25 119.978 17.55C120.928 17.78 121.838 17.06 121.838 16.08V11.89C121.838 11.19 121.358 10.58 120.678 10.42Z" fill="#DA5225"/>
<path d="M180.718 56.5C180.208 55.55 179.688 54.62 179.158 53.69C178.718 52.94 177.808 52.59 176.978 52.85L173.688 53.86C172.528 54.22 172.008 55.57 172.628 56.61C173.148 57.49 173.658 58.38 174.148 59.28C174.578 60.07 175.498 60.46 176.368 60.19L179.628 59.18C180.748 58.85 181.278 57.55 180.718 56.5Z" fill="#610000"/>
<path d="M189.388 79.74C188.238 74.62 186.668 69.67 184.708 64.91C184.278 63.86 183.128 63.31 182.048 63.64L179.398 64.46C178.168 64.84 177.538 66.19 178.038 67.38C179.928 71.91 181.428 76.63 182.508 81.52C182.788 82.76 184.058 83.5 185.268 83.13L187.908 82.32C188.998 81.97 189.638 80.85 189.388 79.74Z" fill="#610000"/>
<path d="M191.318 92.37C191.218 91.2 191.108 90.03 190.968 88.86C190.828 87.7 189.678 86.95 188.568 87.29L185.288 88.3C184.428 88.57 183.888 89.41 183.988 90.3C184.108 91.41 184.218 92.54 184.298 93.66C184.388 94.85 185.558 95.65 186.698 95.3L190.018 94.28C190.838 94.04 191.388 93.24 191.318 92.37Z" fill="#610000"/>
<path d="M166.538 163.09C167.288 162.29 168.028 161.48 168.758 160.66C169.318 160.02 169.358 159.07 168.858 158.37L166.798 155.52C166.108 154.56 164.688 154.49 163.918 155.39C163.228 156.19 162.528 156.97 161.808 157.74C161.208 158.39 161.138 159.36 161.648 160.08L163.688 162.91C164.378 163.84 165.748 163.93 166.538 163.09Z" fill="#605E43"/>
<path d="M147.328 178.63C151.758 175.94 155.948 172.88 159.848 169.5C160.718 168.75 160.878 167.47 160.208 166.54L158.608 164.32C157.848 163.27 156.358 163.1 155.388 163.95C151.678 167.19 147.678 170.11 143.438 172.67C142.338 173.33 142.038 174.79 142.788 175.83L144.388 178.04C145.058 178.98 146.338 179.23 147.328 178.63Z" fill="#605E43"/>
<path d="M136.168 184.4C137.058 184.02 137.938 183.62 138.818 183.21C140.048 182.63 140.458 181.07 139.658 179.97L138.018 177.69C137.408 176.84 136.268 176.56 135.318 177C134.498 177.38 133.668 177.75 132.828 178.11C131.548 178.66 131.098 180.25 131.908 181.38L133.568 183.68C134.148 184.49 135.238 184.8 136.168 184.4Z" fill="#605E43"/>
<path d="M61.2187 183.54C62.0987 183.95 62.9887 184.34 63.8887 184.72C64.8087 185.11 65.8887 184.8 66.4687 183.98L68.1387 181.66C68.9587 180.53 68.4987 178.93 67.2087 178.4C66.3587 178.05 65.5186 177.68 64.6886 177.31C63.7386 176.88 62.6287 177.16 62.0187 178.01L60.3686 180.3C59.5686 181.41 59.9787 182.97 61.2187 183.54Z" fill="#456D90"/>
<path d="M39.9882 169.93C43.9582 173.32 48.2182 176.39 52.7382 179.07C53.6882 179.63 54.9082 179.39 55.5582 178.49L57.2382 176.16C57.9682 175.15 57.6683 173.73 56.5983 173.09C52.2883 170.55 48.2182 167.63 44.4382 164.39C43.4982 163.58 42.0683 163.75 41.3383 164.76L39.6583 167.08C39.0183 167.98 39.1482 169.22 39.9882 169.93Z" fill="#456D90"/>
<path d="M31.2084 161.38C31.8384 162.08 32.4784 162.78 33.1384 163.46C34.0284 164.4 35.5584 164.29 36.3184 163.24L38.0884 160.79C38.6684 159.98 38.5884 158.88 37.8984 158.15C37.2884 157.5 36.6884 156.84 36.0884 156.17C35.2084 155.18 33.6383 155.25 32.8683 156.33L31.0884 158.8C30.5184 159.58 30.5684 160.66 31.2084 161.38Z" fill="#456D90"/>
<path d="M8.28827 89.36C8.17827 90.3 8.0883 91.25 8.0083 92.2C7.9183 93.22 8.56828 94.16 9.54828 94.46L12.2083 95.28C13.5583 95.7 14.9383 94.75 15.0383 93.35C15.1083 92.45 15.1883 91.55 15.2883 90.66C15.3983 89.61 14.7383 88.63 13.7383 88.32L11.1183 87.51C9.80829 87.11 8.44827 88 8.28827 89.36Z" fill="#E0AC0F"/>
<path d="M14.5588 65.05C12.6088 69.78 11.0488 74.71 9.9088 79.8C9.6588 80.94 10.3087 82.08 11.4187 82.42L13.9787 83.21C15.2187 83.59 16.5188 82.83 16.7988 81.57C17.8688 76.72 19.3687 72.02 21.2287 67.52C21.7287 66.31 21.0888 64.93 19.8388 64.55L17.2788 63.76C16.1788 63.41 14.9988 63.97 14.5588 65.05Z" fill="#E0AC0F"/>
<path d="M20.0588 53.89C19.5788 54.72 19.0988 55.57 18.6488 56.42C18.0388 57.55 18.6188 58.96 19.8488 59.34L22.7988 60.25C23.7288 60.54 24.7288 60.12 25.1988 59.26C25.6388 58.46 26.0888 57.67 26.5588 56.88C27.2288 55.74 26.6688 54.28 25.4088 53.89L22.4288 52.97C21.5188 52.7 20.5288 53.08 20.0588 53.89Z" fill="#E0AC0F"/>
<path d="M26.3582 49.01C26.3582 49.01 28.5382 50.29 30.0482 48.3C49.0082 23.4 55.7782 25.3 72.0382 19.7C72.6382 19.49 73.8483 19.05 74.4683 18.49C74.7783 18.21 74.8183 17.73 74.5883 17.38L73.1583 15.15C72.3583 14.08 69.9183 14.56 68.9083 14.89C50.4883 20.98 37.9582 28.88 28.6182 43.35C26.7882 46.2 24.2482 48.57 26.3582 49.01Z" fill="#B4A890"/>
<path d="M126.579 15.04C126.579 15.04 126.009 18.01 128.499 18.28C143.049 19.82 158.839 34.72 169.609 48.14C170.009 48.64 170.829 49.62 171.569 50.02C171.939 50.22 172.609 50.26 172.859 49.93L174.909 48.71C175.459 48.32 175.699 47.61 175.469 46.97C174.999 45.68 171.559 42.73 170.989 42.23C162.139 34.45 156.009 23.37 132.169 15.02C128.979 13.9 126.279 12.9 126.579 15.04Z" fill="#B4A890"/>
<path d="M10.0579 98.48C10.0579 98.48 13.1579 98.8 12.6079 101.24C8.8379 117.89 19.6779 135.02 29.4579 149.17C29.8179 149.69 30.5279 150.76 30.6979 151.58C30.7779 151.99 30.6279 152.64 30.2379 152.79L28.4879 154.4C27.9579 154.81 27.208 154.84 26.658 154.44C25.558 153.62 24.3979 151.86 24.0879 151.17C19.1679 140.46 9.61792 129.04 8.43792 103.81C8.28792 100.45 8.09792 97.58 10.0579 98.48Z" fill="#B4A890"/>
<path d="M70.4783 184.57C70.4783 184.57 71.4583 182.43 73.8983 183C104.218 190.04 108.618 187.54 124.688 181.81C125.288 181.6 126.528 181.28 127.368 181.38C127.788 181.43 128.088 181.79 128.118 182.21L129.138 184.75C129.368 185.32 129.178 185.99 128.668 186.32C127.618 187 125.668 187.32 124.938 187.54C106.408 193.31 95.7483 192.87 83.0183 190.87C79.6783 190.34 69.0183 186.16 70.4783 184.57Z" fill="#B4A890"/>
<path d="M189.709 98.36C189.709 98.36 187.549 98.65 187.159 101.12C180.179 144.9 180.089 134.9 170.309 149.05C169.949 149.57 169.239 150.64 169.069 151.46C168.989 151.87 169.139 152.52 169.529 152.67L171.279 154.28C171.809 154.69 172.559 154.72 173.109 154.32C174.209 153.5 175.369 151.74 175.679 151.05C180.599 140.34 190.149 128.92 191.329 103.69C191.489 100.33 191.679 97.46 189.709 98.36Z" fill="#B4A890"/>
<path d="M102.058 84.28C102.538 82.93 99.6184 86.7 100.338 89.22C101.248 92.39 102.008 93.58 99.7784 95.82C97.1484 98.45 92.6384 100.27 89.0884 103.9C85.3384 107.74 81.6084 112.88 81.6084 118.87C81.6084 124.42 84.6284 129.03 87.3384 130.69C90.0384 132.35 91.2884 132.15 91.2884 132.15C91.2884 132.15 87.7584 129.99 86.8984 127.64C85.0984 122.72 86.6584 117.68 91.0984 114.55C94.1784 112.38 97.6684 106.74 97.4584 105.91C97.2484 105.08 96.3784 114.19 100.458 118.23C102.868 120.61 107.038 121.8 106.818 125.96C106.718 127.87 103.748 130.48 102.088 131.52C100.428 132.56 104.628 131.95 106.918 130.5C109.208 129.04 114.578 127.85 117.028 118.28C118.348 113.12 117.918 106.33 113.208 100.7C110.358 97.3 100.188 89.56 102.058 84.28Z" fill="url(#paint0_linear_242_134)"/>
<path d="M92.9583 130.41C95.0283 131.67 97.7683 131.4 99.3883 129.59C99.8983 129.02 100.198 128.4 100.008 127.77C99.3883 125.69 95.4383 122.78 95.6383 120.91C95.8483 119.04 93.9783 122.78 92.5183 124.65C91.0583 126.52 91.0583 129.22 92.7283 130.26C92.8083 130.32 92.8783 130.36 92.9583 130.41Z" fill="url(#paint1_linear_242_134)"/>
<path d="M79.8785 128.63C81.9785 128.63 82.9385 131.11 82.3585 132.26C81.7785 133.41 79.2186 134.8 74.0286 135.97C65.6286 137.86 60.7786 143.69 56.5786 143.91C55.5486 143.96 52.5285 142.71 52.7585 139.07C52.8185 138.07 53.8185 136.43 54.4385 135.66C54.9085 135.07 55.5685 134.66 56.2985 134.48L79.8785 128.63Z" fill="url(#paint2_linear_242_134)"/>
<path d="M97.8292 58.05C98.2892 48.19 96.0392 48.31 98.2692 36.26C98.3892 35.64 98.4892 33.87 98.9392 33.2C99.5592 32.3 101.789 28.29 99.0392 44.1C98.1892 48.96 97.8292 58.05 97.8292 58.05Z" fill="url(#paint3_linear_242_134)"/>
<path d="M97.749 56.34C101.519 51.81 99.429 51 105.549 46.12C105.869 45.87 106.559 45.06 107.199 44.92C108.069 44.73 111.459 43.68 103.579 50.16C101.169 52.15 97.749 56.34 97.749 56.34Z" fill="url(#paint4_linear_242_134)"/>
<path d="M97.1992 56.34C106.509 53.04 105.549 51.01 117.549 48.52C118.169 48.39 119.839 47.82 120.639 47.99C121.709 48.22 126.259 48.77 110.579 52.19C105.749 53.25 97.1992 56.34 97.1992 56.34Z" fill="url(#paint5_linear_242_134)"/>
<path d="M100.129 56.57C90.329 57.81 90.839 60.01 78.589 59.89C77.959 59.88 76.199 60.09 75.459 59.75C74.459 59.3 70.139 57.79 86.179 57.78C91.119 57.78 100.129 56.57 100.129 56.57Z" fill="url(#paint6_linear_242_134)"/>
<path d="M98.4587 56.94C93.3487 54 92.9087 56.2 87.0487 51.01C86.7487 50.74 85.8387 50.2 85.5787 49.59C85.2387 48.77 83.6187 45.61 91.3587 52.25C93.7387 54.3 98.4587 56.94 98.4587 56.94Z" fill="url(#paint7_linear_242_134)"/>
<path d="M98.5592 57.49C93.7092 48.89 91.8693 50.19 87.3493 38.8C87.1193 38.21 86.2592 36.66 86.2992 35.85C86.3392 34.76 86.1092 30.18 92.1692 45.03C94.0392 49.6 98.5592 57.49 98.5592 57.49Z" fill="url(#paint8_linear_242_134)"/>
<path d="M97.7793 55.47C98.0793 65.34 100.309 65.05 99.0193 77.23C98.9493 77.86 98.9893 79.63 98.5793 80.33C98.0393 81.28 96.1193 85.44 97.6493 69.47C98.1193 64.56 97.7793 55.47 97.7793 55.47Z" fill="url(#paint9_linear_242_134)"/>
<path d="M97.989 57.17C94.579 61.97 96.719 62.62 90.999 67.96C90.699 68.24 90.079 69.09 89.439 69.28C88.589 69.54 85.289 70.84 92.639 63.78C94.909 61.61 97.989 57.17 97.989 57.17Z" fill="url(#paint10_linear_242_134)"/>
<path d="M98.5485 57.13C89.5185 61.13 90.6385 63.09 78.8685 66.49C78.2585 66.67 76.6385 67.37 75.8285 67.26C74.7485 67.11 70.1685 66.91 85.5285 62.29C90.2585 60.87 98.5485 57.13 98.5485 57.13Z" fill="url(#paint11_linear_242_134)"/>
<path d="M97.2393 56.62C102.559 59.15 102.829 56.93 109.079 61.65C109.399 61.89 110.349 62.37 110.649 62.95C111.049 63.74 112.909 66.77 104.679 60.74C102.149 58.9 97.2393 56.62 97.2393 56.62Z" fill="url(#paint12_linear_242_134)"/>
<path d="M97.0986 56.09C102.599 64.29 104.339 62.86 109.709 73.87C109.989 74.44 110.959 75.92 110.989 76.73C111.029 77.82 111.619 82.37 104.429 68.03C102.209 63.6 97.0986 56.09 97.0986 56.09Z" fill="url(#paint13_linear_242_134)"/>
<path d="M88.6681 133.88C90.3981 132.7 92.5881 134.22 92.7581 135.49C92.9281 136.76 91.5881 139.35 87.9381 143.24C82.0381 149.52 81.2981 157.07 77.9481 159.6C77.1281 160.22 73.9181 160.88 72.0681 157.74C71.5581 156.87 71.4681 154.96 71.5481 153.98C71.6081 153.23 71.9181 152.52 72.4181 151.96L88.6681 133.88Z" fill="url(#paint14_linear_242_134)"/>
<path d="M98.0181 136.37C98.7681 134.41 101.438 134.41 102.298 135.36C103.158 136.31 103.538 139.2 102.768 144.47C101.518 152.99 105.218 159.61 103.908 163.61C103.588 164.59 101.328 166.96 98.0181 165.44C97.1081 165.02 95.938 163.5 95.438 162.65C95.058 162 94.908 161.24 94.998 160.49L98.0181 136.37Z" fill="url(#paint15_linear_242_134)"/>
<path d="M108.508 135.41C107.808 133.43 109.838 131.7 111.108 131.86C112.378 132.02 114.548 133.98 117.378 138.49C121.948 145.79 129.058 148.43 130.658 152.32C131.048 153.27 130.868 156.54 127.368 157.53C126.398 157.8 124.528 157.4 123.598 157.08C122.888 156.83 122.278 156.35 121.868 155.72L108.508 135.41Z" fill="url(#paint16_linear_242_134)"/>
<path d="M119.939 127.63C117.839 127.63 116.879 130.11 117.459 131.26C118.029 132.41 120.599 133.8 125.789 134.97C134.189 136.86 139.039 142.69 143.239 142.91C144.269 142.96 147.289 141.71 147.059 138.07C146.999 137.07 145.999 135.43 145.379 134.66C144.909 134.07 144.249 133.66 143.519 133.48L119.939 127.63Z" fill="url(#paint17_linear_242_134)"/>
<path d="M92.629 98.13C92.629 98.13 98.2891 94.53 98.5891 91.59C98.8391 89.19 97.039 85.35 95.499 83.38C93.919 81.36 92.209 77.03 93.509 72.11C94.809 67.19 95.809 65.33 95.509 64.72C95.319 64.35 94.639 65 93.429 67.28C92.209 69.55 89.909 74.06 90.519 77.16C91.319 81.23 95.509 86.34 96.619 87.57C98.229 89.36 97.3991 92.33 95.9691 93.33C93.9491 94.73 92.629 98.13 92.629 98.13Z" fill="url(#paint18_linear_242_134)"/>
<defs>
<linearGradient id="paint0_linear_242_134" x1="99.6397" y1="132.152" x2="99.6397" y2="83.9926" gradientUnits="userSpaceOnUse">
<stop stop-color="#DA5225"/>
<stop offset="0.3585" stop-color="#D85125"/>
<stop offset="0.5137" stop-color="#D14D24"/>
<stop offset="0.6297" stop-color="#C44523"/>
<stop offset="0.7262" stop-color="#B43B20"/>
<stop offset="0.8106" stop-color="#9F2D1B"/>
<stop offset="0.8864" stop-color="#871D13"/>
<stop offset="0.9545" stop-color="#6E0507"/>
<stop offset="0.986" stop-color="#610000"/>
</linearGradient>
<linearGradient id="paint1_linear_242_134" x1="95.7628" y1="131.188" x2="95.7628" y2="120.407" gradientUnits="userSpaceOnUse">
<stop stop-color="white"/>
<stop offset="0.0435" stop-color="#F7E6C4"/>
<stop offset="0.1015" stop-color="#F0D089"/>
<stop offset="0.1539" stop-color="#E9BF5D"/>
<stop offset="0.1987" stop-color="#E4B436"/>
<stop offset="0.2341" stop-color="#E1AE1A"/>
<stop offset="0.2558" stop-color="#E0AC0F"/>
<stop offset="0.3759" stop-color="#DFA214"/>
<stop offset="0.6113" stop-color="#DD881D"/>
<stop offset="0.9363" stop-color="#DB5D24"/>
<stop offset="1" stop-color="#DA5225"/>
</linearGradient>
<linearGradient id="paint2_linear_242_134" x1="52.7379" y1="136.275" x2="82.5232" y2="136.275" gradientUnits="userSpaceOnUse">
<stop stop-color="#605E43"/>
<stop offset="0.043" stop-color="#767057"/>
<stop offset="0.0946" stop-color="#8B836A"/>
<stop offset="0.1541" stop-color="#9C927A"/>
<stop offset="0.2252" stop-color="#AA9E86"/>
<stop offset="0.3193" stop-color="#B2A68E"/>
<stop offset="0.5283" stop-color="#B4A890"/>
<stop offset="0.5903" stop-color="#B7A48A"/>
<stop offset="0.6819" stop-color="#BD9979"/>
<stop offset="0.7916" stop-color="#C68660"/>
<stop offset="0.9144" stop-color="#D16B3D"/>
<stop offset="1" stop-color="#DA5225"/>
</linearGradient>
<linearGradient id="paint3_linear_242_134" x1="95.5263" y1="45.7217" x2="102.588" y2="44.3804" gradientUnits="userSpaceOnUse">
<stop stop-color="white"/>
<stop offset="0.9916" stop-color="#DA5225"/>
<stop offset="1"/>
</linearGradient>
<linearGradient id="paint4_linear_242_134" x1="99.763" y1="49.576" x2="106.642" y2="51.6629" gradientUnits="userSpaceOnUse">
<stop stop-color="white"/>
<stop offset="0.9916" stop-color="#DA5225"/>
<stop offset="1"/>
</linearGradient>
<linearGradient id="paint5_linear_242_134" x1="107.74" y1="49.4924" x2="111.648" y2="55.5257" gradientUnits="userSpaceOnUse">
<stop stop-color="white"/>
<stop offset="0.9916" stop-color="#DA5225"/>
<stop offset="1"/>
</linearGradient>
<linearGradient id="paint6_linear_242_134" x1="88.3263" y1="60.9992" x2="85.7888" y2="54.2737" gradientUnits="userSpaceOnUse">
<stop stop-color="white"/>
<stop offset="0.9916" stop-color="#DA5225"/>
<stop offset="1"/>
</linearGradient>
<linearGradient id="paint7_linear_242_134" x1="91.4644" y1="56.036" x2="92.3347" y2="48.9008" gradientUnits="userSpaceOnUse">
<stop stop-color="white"/>
<stop offset="0.9916" stop-color="#DA5225"/>
<stop offset="1"/>
</linearGradient>
<linearGradient id="paint8_linear_242_134" x1="89.9795" y1="48.3305" x2="95.2494" y2="43.4409" gradientUnits="userSpaceOnUse">
<stop stop-color="white"/>
<stop offset="0.9916" stop-color="#DA5225"/>
<stop offset="1"/>
</linearGradient>
<linearGradient id="paint9_linear_242_134" x1="101.095" y1="67.6168" x2="94.1568" y2="69.4973" gradientUnits="userSpaceOnUse">
<stop stop-color="white"/>
<stop offset="0.9916" stop-color="#DA5225"/>
<stop offset="1"/>
</linearGradient>
<linearGradient id="paint10_linear_242_134" x1="96.4007" y1="64.0345" x2="89.382" y2="62.4834" gradientUnits="userSpaceOnUse">
<stop stop-color="white"/>
<stop offset="0.9916" stop-color="#DA5225"/>
<stop offset="1"/>
</linearGradient>
<linearGradient id="paint11_linear_242_134" x1="88.5971" y1="64.8053" x2="84.2358" y2="59.0904" gradientUnits="userSpaceOnUse">
<stop stop-color="white"/>
<stop offset="0.9916" stop-color="#DA5225"/>
<stop offset="1"/>
</linearGradient>
<linearGradient id="paint12_linear_242_134" x1="104.329" y1="56.9481" x2="104.011" y2="64.1293" gradientUnits="userSpaceOnUse">
<stop stop-color="white"/>
<stop offset="0.9916" stop-color="#DA5225"/>
<stop offset="1"/>
</linearGradient>
<linearGradient id="paint13_linear_242_134" x1="106.284" y1="64.5571" x2="101.407" y2="69.8377" gradientUnits="userSpaceOnUse">
<stop stop-color="white"/>
<stop offset="0.9916" stop-color="#DA5225"/>
<stop offset="1"/>
</linearGradient>
<linearGradient id="paint14_linear_242_134" x1="70.4712" y1="155.439" x2="95.1304" y2="138.732" gradientUnits="userSpaceOnUse">
<stop stop-color="#605E43"/>
<stop offset="0.043" stop-color="#767057"/>
<stop offset="0.0946" stop-color="#8B836A"/>
<stop offset="0.1541" stop-color="#9C927A"/>
<stop offset="0.2252" stop-color="#AA9E86"/>
<stop offset="0.3193" stop-color="#B2A68E"/>
<stop offset="0.5283" stop-color="#B4A890"/>
<stop offset="0.5903" stop-color="#B7A48A"/>
<stop offset="0.6819" stop-color="#BD9979"/>
<stop offset="0.7916" stop-color="#C68660"/>
<stop offset="0.9144" stop-color="#D16B3D"/>
<stop offset="1" stop-color="#DA5225"/>
</linearGradient>
<linearGradient id="paint15_linear_242_134" x1="95.3418" y1="164.419" x2="106.044" y2="136.624" gradientUnits="userSpaceOnUse">
<stop stop-color="#605E43"/>
<stop offset="0.043" stop-color="#767057"/>
<stop offset="0.0946" stop-color="#8B836A"/>
<stop offset="0.1541" stop-color="#9C927A"/>
<stop offset="0.2252" stop-color="#AA9E86"/>
<stop offset="0.3193" stop-color="#B2A68E"/>
<stop offset="0.5283" stop-color="#B4A890"/>
<stop offset="0.5903" stop-color="#B7A48A"/>
<stop offset="0.6819" stop-color="#BD9979"/>
<stop offset="0.7916" stop-color="#C68660"/>
<stop offset="0.9144" stop-color="#D16B3D"/>
<stop offset="1" stop-color="#DA5225"/>
</linearGradient>
<linearGradient id="paint16_linear_242_134" x1="124.67" y1="158.44" x2="114.787" y2="130.344" gradientUnits="userSpaceOnUse">
<stop stop-color="#605E43"/>
<stop offset="0.043" stop-color="#767057"/>
<stop offset="0.0946" stop-color="#8B836A"/>
<stop offset="0.1541" stop-color="#9C927A"/>
<stop offset="0.2252" stop-color="#AA9E86"/>
<stop offset="0.3193" stop-color="#B2A68E"/>
<stop offset="0.5283" stop-color="#B4A890"/>
<stop offset="0.5903" stop-color="#B7A48A"/>
<stop offset="0.6819" stop-color="#BD9979"/>
<stop offset="0.7916" stop-color="#C68660"/>
<stop offset="0.9144" stop-color="#D16B3D"/>
<stop offset="1" stop-color="#DA5225"/>
</linearGradient>
<linearGradient id="paint17_linear_242_134" x1="147.074" y1="135.275" x2="117.289" y2="135.275" gradientUnits="userSpaceOnUse">
<stop stop-color="#605E43"/>
<stop offset="0.043" stop-color="#767057"/>
<stop offset="0.0946" stop-color="#8B836A"/>
<stop offset="0.1541" stop-color="#9C927A"/>
<stop offset="0.2252" stop-color="#AA9E86"/>
<stop offset="0.3193" stop-color="#B2A68E"/>
<stop offset="0.5283" stop-color="#B4A890"/>
<stop offset="0.5903" stop-color="#B7A48A"/>
<stop offset="0.6819" stop-color="#BD9979"/>
<stop offset="0.7916" stop-color="#C68660"/>
<stop offset="0.9144" stop-color="#D16B3D"/>
<stop offset="1" stop-color="#DA5225"/>
</linearGradient>
<linearGradient id="paint18_linear_242_134" x1="94.5149" y1="98.1281" x2="94.5149" y2="64.6221" gradientUnits="userSpaceOnUse">
<stop stop-color="#610000"/>
<stop offset="0.0192" stop-color="#670003"/>
<stop offset="0.1399" stop-color="#8B2015"/>
<stop offset="0.2546" stop-color="#AB351E"/>
<stop offset="0.3604" stop-color="#C44523"/>
<stop offset="0.4541" stop-color="#D44F25"/>
<stop offset="0.5259" stop-color="#DA5225"/>
<stop offset="0.5665" stop-color="#DC582A"/>
<stop offset="0.6312" stop-color="#DF6839"/>
<stop offset="0.7119" stop-color="#E47F55"/>
<stop offset="0.8053" stop-color="#ECA17D"/>
<stop offset="0.9082" stop-color="#F6D0BB"/>
<stop offset="0.986" stop-color="white"/>
</linearGradient>
</defs>
</svg>
