<svg width="200" height="200" viewBox="0 0 200 200" fill="none" xmlns="http://www.w3.org/2000/svg">
<path d="M112.814 91.1081C115.503 89.0116 116.783 89.6757 117.552 88.9636C122.473 84.4504 119.112 82.0258 120.76 80.4414C122.513 78.761 131.547 75.6962 129.195 75.5762C121.921 75.1921 144.222 64.3654 145.719 63.2291C147.559 61.8287 149.112 60.0923 150.328 58.1318C152.08 55.2991 154.953 48.1773 157.306 47.2091C163.099 44.8325 166.532 37.3266 167.948 37.7267C168.604 37.9107 164.451 47.3291 164.067 48.8575C163.907 49.4816 164.731 49.8737 165.108 49.3456C167.62 45.8647 170.645 43.5281 170.981 41.5196C171.517 38.2868 175.83 36.3103 183.192 34.8779C184.408 34.6379 186.889 34.5899 189.122 34.6059C190.066 34.6139 190.346 35.8942 189.482 36.2863C182.912 39.2871 169.957 47.2011 161.603 65.3416C156.609 76.1924 146.639 92.8286 141.878 96.8696C138.197 99.9904 142.382 95.8453 142.542 93.8768C142.814 90.532 138.261 90.516 135.164 88.9156C132.395 87.4832 127.266 85.7388 124.073 88.1794C119.92 91.3482 110.63 94.3889 110.63 94.3889L112.814 91.1081Z" fill="url(#paint0_linear_242_389)"/>
<path d="M139.445 96.8936C139.445 96.8936 138.789 95.5412 137.572 96.1974C136.356 96.8536 132.811 94.373 127.33 102.535C126.09 104.383 126.93 106.76 126.218 108.705C125.369 111.017 118.512 109.401 117.503 108.841C104.796 101.823 97.2263 82.8021 93.3054 77.8168C88.6242 71.8713 82.5426 65.0056 78.5416 63.9253C74.5326 62.845 56.216 55.0031 29.4813 53.0746C15.9819 52.0983 10.3564 43.6642 10.4205 46.1768C10.5085 49.6977 16.534 57.5877 17.9424 58.764C19.3507 59.9403 19.6308 60.6365 23.8799 62.789C28.1369 64.9416 39.6198 69.0306 40.5721 70.4709C41.8204 72.3594 37.9074 72.7355 36.9071 72.8315C33.9144 73.1036 31.5938 74.4399 32.194 76.0564C32.7941 77.6728 36.0429 79.3612 41.3323 81.0976C46.1415 82.674 55.6639 82.0419 57.1842 83.6983C58.7046 85.3547 47.9979 83.0421 43.1567 84.0664C39.5718 84.8186 36.5951 84.7065 37.7313 86.2029C38.8756 87.6993 48.8061 90.7961 55.8879 90.404C62.9697 90.0199 69.5634 89.4917 69.8594 90.2999C70.1635 91.1081 67.6749 90.684 63.8899 91.5563C60.105 92.4285 52.143 93.9009 51.7429 95.1252C51.3428 96.3495 52.4311 97.6058 56.112 98.7581C59.7929 99.9104 69.0432 99.1022 71.4758 100.719C83.1428 108.489 66.4906 103.759 65.7624 104.552C65.0342 105.344 69.7874 108.641 72.7882 109.329C75.7889 110.017 80.9822 109.817 84.6312 109.849C88.2801 109.881 90.2006 110.313 89.0723 110.825C87.936 111.337 82.9507 113.378 82.8467 114.402C82.7427 115.434 84.047 117.139 88.072 116.33C92.097 115.522 86.2876 120.556 86.0235 120.876C85.7595 121.196 79.7339 124.645 56.8162 129.238C54.7356 129.654 53.8314 131.566 55.7039 133.767C57.5763 135.967 57.0802 139.224 64.274 139.816C71.4678 140.409 79.4058 138.816 78.4616 139.664C77.5174 140.513 63.2898 142.561 64.138 143.249C64.9782 143.929 76.5331 142.121 82.5426 142.873C87.3999 143.481 89.1923 144.21 92.2651 141.737C95.3379 139.264 96.6342 134.567 99.0988 129.982C101.563 125.389 102.628 123.132 107.789 121.812C112.95 120.492 120.288 119.835 124.249 117.243C134.876 110.281 132.323 104.047 133.764 101.847C135.772 98.7901 137.524 97.9579 138.229 97.5498C138.933 97.1417 139.445 96.8936 139.445 96.8936Z" fill="url(#paint1_linear_242_389)"/>
<path d="M134.339 92.6925C135.033 92.6925 135.596 92.13 135.596 91.4362C135.596 90.7423 135.033 90.1799 134.339 90.1799C133.645 90.1799 133.083 90.7423 133.083 91.4362C133.083 92.13 133.645 92.6925 134.339 92.6925Z" fill="#E0AC0F"/>
<path d="M89.6567 27.5481C88.6804 27.7242 87.7042 27.9162 86.7439 28.1243C86.0958 28.2683 85.6396 28.8445 85.6396 29.5086V32.4374C85.6396 33.3416 86.4799 34.0137 87.3601 33.8137C88.2883 33.6056 89.2165 33.4136 90.1608 33.2376C90.833 33.1095 91.3291 32.5334 91.3291 31.8452V28.9405C91.3291 28.0603 90.5289 27.3961 89.6567 27.5481Z" fill="#DA5225"/>
<path d="M110.95 30.6449V28.4523C110.95 27.5401 110.254 26.7879 109.35 26.7079C107.141 26.5078 104.908 26.4038 102.644 26.4038C100.715 26.4038 98.8109 26.4838 96.9225 26.6279C96.0022 26.6999 95.29 27.4601 95.29 28.3803V30.5729C95.29 31.5971 96.1623 32.3973 97.1865 32.3173C98.987 32.1733 100.803 32.0932 102.636 32.0932C104.796 32.0932 106.925 32.1973 109.03 32.3973C110.062 32.4853 110.95 31.6771 110.95 30.6449Z" fill="#DA5225"/>
<path d="M119.464 28.3403C118.44 28.1003 117.408 27.8842 116.367 27.6842C115.615 27.5401 114.919 28.1083 114.919 28.8764V32.1973C114.919 32.7814 115.335 33.2696 115.903 33.3816C116.911 33.5816 117.912 33.8057 118.904 34.0458C119.664 34.2298 120.392 33.6537 120.392 32.8695V29.5166C120.392 28.9645 120.008 28.4683 119.464 28.3403Z" fill="#DA5225"/>
<path d="M167.508 65.2216C167.1 64.4614 166.684 63.7172 166.26 62.973C165.908 62.3729 165.18 62.0928 164.515 62.3008L161.883 63.109C160.954 63.3971 160.538 64.4774 161.034 65.3096C161.451 66.0138 161.859 66.7259 162.251 67.4461C162.595 68.0783 163.331 68.3904 164.027 68.1743L166.636 67.3661C167.532 67.094 167.956 66.0538 167.508 65.2216Z" fill="#610000"/>
<path d="M174.446 83.8102C173.525 79.7132 172.269 75.7522 170.701 71.9433C170.357 71.103 169.436 70.6629 168.572 70.927L166.452 71.5832C165.467 71.8872 164.963 72.9675 165.363 73.9197C166.876 77.5447 168.076 81.3216 168.94 85.2346C169.164 86.2268 170.181 86.819 171.149 86.5229L173.261 85.8748C174.134 85.5947 174.646 84.6985 174.446 83.8102Z" fill="#610000"/>
<path d="M175.99 93.9168C175.91 92.9806 175.822 92.0443 175.71 91.1081C175.598 90.1799 174.678 89.5797 173.79 89.8518L171.165 90.66C170.477 90.876 170.045 91.5482 170.125 92.2604C170.221 93.1486 170.309 94.0528 170.373 94.9491C170.445 95.9013 171.381 96.5415 172.293 96.2614L174.95 95.4452C175.606 95.2531 176.046 94.613 175.99 93.9168Z" fill="#610000"/>
<path d="M156.161 150.507C156.761 149.867 157.354 149.219 157.938 148.563C158.386 148.05 158.418 147.29 158.018 146.73L156.369 144.45C155.817 143.681 154.681 143.625 154.065 144.346C153.513 144.986 152.952 145.61 152.376 146.226C151.896 146.746 151.84 147.522 152.248 148.098L153.881 150.363C154.433 151.107 155.529 151.179 156.161 150.507Z" fill="#605E43"/>
<path d="M140.789 162.942C144.334 160.79 147.687 158.341 150.808 155.636C151.504 155.036 151.632 154.012 151.096 153.268L149.816 151.491C149.207 150.651 148.015 150.515 147.239 151.195C144.27 153.788 141.069 156.124 137.677 158.173C136.796 158.701 136.556 159.869 137.156 160.702L138.437 162.47C138.973 163.222 139.997 163.422 140.789 162.942Z" fill="#605E43"/>
<path d="M131.859 167.559C132.571 167.255 133.275 166.935 133.979 166.607C134.964 166.143 135.292 164.895 134.652 164.014L133.339 162.19C132.851 161.51 131.939 161.286 131.179 161.638C130.523 161.942 129.858 162.238 129.186 162.526C128.162 162.966 127.802 164.239 128.45 165.143L129.778 166.983C130.242 167.631 131.115 167.879 131.859 167.559Z" fill="#605E43"/>
<path d="M71.8845 166.871C72.5887 167.199 73.3009 167.511 74.0211 167.815C74.7573 168.127 75.6215 167.879 76.0856 167.223L77.4219 165.367C78.0781 164.463 77.71 163.182 76.6778 162.758C75.9976 162.478 75.3254 162.182 74.6612 161.886C73.9011 161.542 73.0128 161.766 72.5247 162.446L71.2044 164.279C70.5642 165.167 70.8923 166.415 71.8845 166.871Z" fill="#456D90"/>
<path d="M54.8954 155.988C58.0722 158.701 61.4811 161.158 65.098 163.302C65.8582 163.75 66.8345 163.558 67.3546 162.838L68.6989 160.974C69.2831 160.165 69.043 159.029 68.1868 158.517C64.7379 156.485 61.4811 154.148 58.4563 151.555C57.7041 150.907 56.5599 151.043 55.9757 151.851L54.6314 153.708C54.1192 154.42 54.2233 155.412 54.8954 155.988Z" fill="#456D90"/>
<path d="M47.8699 149.139C48.3741 149.699 48.8862 150.259 49.4143 150.803C50.1265 151.555 51.3508 151.467 51.959 150.627L53.3753 148.667C53.8394 148.018 53.7754 147.138 53.2233 146.554C52.7352 146.034 52.255 145.506 51.7749 144.97C51.0707 144.178 49.8144 144.234 49.1983 145.098L47.7739 147.074C47.3178 147.706 47.3578 148.563 47.8699 149.139Z" fill="#456D90"/>
<path d="M29.5295 91.5162C29.4415 92.2684 29.3695 93.0286 29.3055 93.7888C29.2335 94.605 29.7536 95.3572 30.5378 95.5972L32.6663 96.2534C33.7466 96.5895 34.8509 95.8293 34.9309 94.709C34.9869 93.9888 35.0509 93.2686 35.1309 92.5565C35.227 91.7163 34.6908 90.9321 33.8906 90.684L31.7941 90.0358C30.7458 89.7078 29.6576 90.4199 29.5295 91.5162Z" fill="#E0AC0F"/>
<path d="M34.5468 72.0553C32.9864 75.8403 31.7381 79.7853 30.8259 83.8583C30.6258 84.7705 31.146 85.6828 32.0342 85.9548L34.0827 86.587C35.075 86.8911 36.1152 86.2829 36.3393 85.2747C37.1955 81.3937 38.3958 77.6327 39.8842 74.0318C40.2843 73.0636 39.7721 71.9593 38.7719 71.6552L36.7234 71.0231C35.8431 70.743 34.8989 71.1991 34.5468 72.0553Z" fill="#E0AC0F"/>
<path d="M38.948 63.1331C38.5639 63.7972 38.1798 64.4774 37.8197 65.1576C37.3316 66.0618 37.7957 67.1901 38.7799 67.4942L41.1405 68.2224C41.8847 68.4544 42.6849 68.1183 43.061 67.4302C43.4131 66.79 43.7732 66.1578 44.1493 65.5257C44.6854 64.6134 44.2373 63.4451 43.229 63.1331L40.8444 62.3969C40.1163 62.1808 39.3241 62.4769 38.948 63.1331Z" fill="#E0AC0F"/>
<path d="M43.9889 59.22C43.9889 59.22 45.7333 60.2443 46.9416 58.6519C62.1134 38.7269 67.5308 40.2473 80.5421 35.7661C81.0222 35.5981 81.9905 35.246 82.4866 34.7979C82.7346 34.5738 82.7666 34.1897 82.5826 33.9097L81.4383 32.1252C80.7982 31.269 78.8457 31.6531 78.0375 31.9172C63.2977 36.7904 53.2712 43.112 45.7973 54.6909C44.333 56.9715 42.3005 58.868 43.9889 59.22Z" fill="#B4A890"/>
<path d="M124.186 32.0372C124.186 32.0372 123.729 34.4138 125.722 34.6299C137.365 35.8622 150 47.7852 158.618 58.5239C158.938 58.924 159.595 59.7082 160.187 60.0283C160.483 60.1883 161.019 60.2203 161.219 59.9563L162.859 58.98C163.299 58.668 163.491 58.0998 163.307 57.5877C162.931 56.5554 160.179 54.1948 159.723 53.7947C152.641 47.5692 147.736 38.7029 128.659 32.0212C126.106 31.133 123.946 30.3328 124.186 32.0372Z" fill="#B4A890"/>
<path d="M30.9453 98.806C30.9453 98.806 33.4259 99.0621 32.9858 101.015C29.9691 114.338 38.6433 128.045 46.4692 139.368C46.7573 139.784 47.3254 140.641 47.4615 141.297C47.5255 141.625 47.4055 142.145 47.0934 142.265L45.693 143.553C45.2689 143.881 44.6688 143.905 44.2287 143.585C43.3484 142.929 42.4202 141.521 42.1721 140.969C38.2352 132.399 30.5932 123.26 29.649 103.071C29.529 100.382 29.3769 98.0859 30.9453 98.806Z" fill="#B4A890"/>
<path d="M79.2938 167.695C79.2938 167.695 80.078 165.983 82.0305 166.439C106.293 172.073 109.813 170.072 122.673 165.487C123.153 165.319 124.145 165.063 124.817 165.143C125.153 165.183 125.393 165.471 125.417 165.807L126.234 167.839C126.418 168.296 126.266 168.832 125.858 169.096C125.017 169.64 123.457 169.896 122.873 170.072C108.045 174.689 99.5149 174.337 89.3283 172.737C86.6557 172.321 78.1255 168.968 79.2938 167.695Z" fill="#B4A890"/>
<path d="M174.703 98.718C174.703 98.718 172.974 98.9501 172.662 100.927C167.077 135.959 167.005 127.957 159.179 139.28C158.891 139.696 158.323 140.553 158.187 141.209C158.123 141.537 158.243 142.057 158.555 142.177L159.955 143.465C160.379 143.793 160.979 143.817 161.419 143.497C162.3 142.841 163.228 141.433 163.476 140.881C167.413 132.31 175.055 123.172 175.999 102.983C176.127 100.294 176.279 97.9978 174.703 98.718Z" fill="#B4A890"/>
<defs>
<linearGradient id="paint0_linear_242_389" x1="108.394" y1="69.5907" x2="192.404" y2="62.0052" gradientUnits="userSpaceOnUse">
<stop offset="0.1778" stop-color="#610000"/>
<stop offset="0.1798" stop-color="#610000"/>
<stop offset="0.4126" stop-color="#9C2C1A"/>
<stop offset="0.5788" stop-color="#C84723"/>
<stop offset="0.6613" stop-color="#DA5225"/>
<stop offset="1" stop-color="#E0AC0F"/>
</linearGradient>
<linearGradient id="paint1_linear_242_389" x1="14.9685" y1="96.659" x2="138.415" y2="85.5129" gradientUnits="userSpaceOnUse">
<stop offset="0.1778" stop-color="#610000"/>
<stop offset="0.1798" stop-color="#610000"/>
<stop offset="0.4126" stop-color="#9C2C1A"/>
<stop offset="0.5788" stop-color="#C84723"/>
<stop offset="0.6613" stop-color="#DA5225"/>
<stop offset="1" stop-color="#E0AC0F"/>
</linearGradient>
</defs>
</svg>
