<svg width="200" height="200" viewBox="0 0 200 200" fill="none" xmlns="http://www.w3.org/2000/svg">
<path d="M83.4185 9.43002C82.1985 9.65002 80.9784 9.89002 79.7784 10.15C78.9684 10.33 78.3984 11.05 78.3984 11.88V15.54C78.3984 16.67 79.4484 17.51 80.5484 17.26C81.7084 17 82.8684 16.76 84.0484 16.54C84.8884 16.38 85.5085 15.66 85.5085 14.8V11.17C85.5085 10.07 84.5085 9.24002 83.4185 9.43002Z" fill="#DA5225"/>
<path d="M110.028 13.3V10.56C110.028 9.42 109.158 8.48 108.028 8.38C105.268 8.13 102.478 8 99.648 8C97.238 8 94.858 8.1 92.498 8.28C91.348 8.37 90.458 9.32 90.458 10.47V13.21C90.458 14.49 91.548 15.49 92.828 15.39C95.078 15.21 97.348 15.11 99.638 15.11C102.338 15.11 104.998 15.24 107.628 15.49C108.928 15.59 110.028 14.59 110.028 13.3Z" fill="#DA5225"/>
<path d="M120.668 10.42C119.388 10.12 118.098 9.85003 116.798 9.60003C115.858 9.42003 114.988 10.13 114.988 11.09V15.24C114.988 15.97 115.508 16.58 116.218 16.72C117.478 16.97 118.728 17.25 119.968 17.55C120.918 17.78 121.828 17.06 121.828 16.08V11.89C121.838 11.19 121.358 10.58 120.668 10.42Z" fill="#DA5225"/>
<path d="M180.718 56.5C180.208 55.55 179.688 54.62 179.158 53.69C178.718 52.94 177.808 52.59 176.978 52.85L173.688 53.86C172.528 54.22 172.008 55.57 172.628 56.61C173.148 57.49 173.658 58.38 174.148 59.28C174.578 60.07 175.498 60.46 176.368 60.19L179.628 59.18C180.748 58.85 181.278 57.55 180.718 56.5Z" fill="#610000"/>
<path d="M189.388 79.74C188.238 74.62 186.668 69.67 184.708 64.91C184.278 63.86 183.128 63.31 182.048 63.64L179.398 64.46C178.168 64.84 177.538 66.19 178.038 67.38C179.928 71.91 181.428 76.63 182.508 81.52C182.788 82.76 184.058 83.5 185.268 83.13L187.908 82.32C188.988 81.97 189.638 80.85 189.388 79.74Z" fill="#610000"/>
<path d="M191.309 92.37C191.209 91.2 191.099 90.03 190.959 88.86C190.819 87.7 189.669 86.95 188.559 87.29L185.279 88.3C184.419 88.57 183.879 89.41 183.979 90.3C184.099 91.41 184.209 92.54 184.289 93.66C184.379 94.85 185.549 95.65 186.689 95.3L190.009 94.28C190.829 94.03 191.379 93.24 191.309 92.37Z" fill="#610000"/>
<path d="M166.538 163.08C167.288 162.28 168.028 161.47 168.758 160.65C169.318 160.01 169.358 159.06 168.858 158.36L166.798 155.51C166.108 154.55 164.688 154.48 163.918 155.38C163.228 156.18 162.528 156.96 161.808 157.73C161.208 158.38 161.138 159.35 161.648 160.07L163.688 162.9C164.378 163.84 165.738 163.93 166.538 163.08Z" fill="#605E43"/>
<path d="M147.318 178.62C151.748 175.93 155.938 172.87 159.838 169.49C160.708 168.74 160.868 167.46 160.198 166.53L158.598 164.31C157.838 163.26 156.348 163.09 155.378 163.94C151.668 167.18 147.668 170.1 143.428 172.66C142.328 173.32 142.028 174.78 142.778 175.82L144.378 178.03C145.058 178.98 146.328 179.22 147.318 178.62Z" fill="#605E43"/>
<path d="M136.158 184.4C137.048 184.02 137.928 183.62 138.808 183.21C140.038 182.63 140.448 181.07 139.648 179.97L138.008 177.69C137.398 176.84 136.258 176.56 135.308 177C134.488 177.38 133.658 177.75 132.818 178.11C131.538 178.66 131.088 180.25 131.898 181.38L133.558 183.68C134.148 184.48 135.228 184.8 136.158 184.4Z" fill="#605E43"/>
<path d="M61.2079 183.54C62.0879 183.95 62.9779 184.34 63.8779 184.72C64.7979 185.11 65.8779 184.8 66.4579 183.98L68.1279 181.66C68.9479 180.53 68.4879 178.93 67.1979 178.4C66.3479 178.05 65.5079 177.68 64.6779 177.31C63.7279 176.88 62.6179 177.16 62.0079 178.01L60.3579 180.3C59.5679 181.4 59.9779 182.97 61.2079 183.54Z" fill="#456D90"/>
<path d="M39.9783 169.93C43.9483 173.32 48.2083 176.39 52.7283 179.07C53.6783 179.63 54.8983 179.39 55.5483 178.49L57.2283 176.16C57.9583 175.15 57.6583 173.73 56.5883 173.09C52.2783 170.55 48.2083 167.63 44.4283 164.39C43.4883 163.58 42.0583 163.75 41.3283 164.76L39.6483 167.08C39.0083 167.98 39.1483 169.22 39.9783 169.93Z" fill="#456D90"/>
<path d="M31.2079 161.38C31.8379 162.08 32.478 162.78 33.138 163.46C34.028 164.4 35.558 164.29 36.318 163.24L38.0879 160.79C38.6679 159.98 38.5879 158.88 37.8979 158.15C37.2879 157.5 36.6879 156.84 36.0879 156.17C35.2079 155.18 33.6379 155.25 32.8679 156.33L31.0879 158.8C30.5179 159.58 30.5579 160.66 31.2079 161.38Z" fill="#456D90"/>
<path d="M8.2883 89.36C8.1783 90.3 8.0883 91.25 8.0083 92.2C7.9183 93.22 8.56828 94.16 9.54828 94.46L12.2083 95.28C13.5583 95.7 14.9383 94.75 15.0383 93.35C15.1083 92.45 15.1883 91.55 15.2883 90.66C15.4083 89.61 14.7383 88.63 13.7383 88.32L11.1183 87.51C9.80829 87.11 8.4383 88 8.2883 89.36Z" fill="#E0AC0F"/>
<path d="M14.5588 65.04C12.6088 69.77 11.0488 74.7 9.90879 79.79C9.65879 80.93 10.3088 82.07 11.4188 82.41L13.9788 83.2C15.2188 83.58 16.5188 82.82 16.7988 81.56C17.8688 76.71 19.3688 72.01 21.2288 67.51C21.7288 66.3 21.0888 64.92 19.8388 64.54L17.2788 63.75C16.1688 63.4 14.9988 63.97 14.5588 65.04Z" fill="#E0AC0F"/>
<path d="M20.048 53.89C19.568 54.72 19.0881 55.57 18.6381 56.42C18.0281 57.55 18.608 58.96 19.838 59.34L22.7881 60.25C23.7181 60.54 24.7181 60.12 25.1881 59.26C25.6281 58.46 26.078 57.67 26.548 56.88C27.218 55.74 26.658 54.28 25.398 53.89L22.4181 52.97C21.5081 52.7 20.528 53.07 20.048 53.89Z" fill="#E0AC0F"/>
<path d="M26.3586 49.01C26.3586 49.01 28.5386 50.29 30.0486 48.3C49.0086 23.4 55.7786 25.3 72.0386 19.7C72.6386 19.49 73.8486 19.05 74.4686 18.49C74.7786 18.21 74.8186 17.73 74.5886 17.38L73.1586 15.15C72.3586 14.08 69.9186 14.56 68.9086 14.89C50.4886 20.98 37.9586 28.88 28.6186 43.35C26.7886 46.2 24.2386 48.57 26.3586 49.01Z" fill="#B4A890"/>
<path d="M126.579 15.04C126.579 15.04 126.009 18.01 128.499 18.28C143.049 19.82 158.839 34.72 169.609 48.14C170.009 48.64 170.829 49.62 171.569 50.02C171.939 50.22 172.609 50.26 172.859 49.93L174.909 48.71C175.459 48.32 175.699 47.61 175.469 46.97C174.999 45.68 171.559 42.73 170.989 42.23C162.139 34.45 156.009 23.37 132.169 15.02C128.969 13.9 126.279 12.9 126.579 15.04Z" fill="#B4A890"/>
<path d="M10.0581 98.48C10.0581 98.48 13.1582 98.8 12.6082 101.24C8.83816 117.89 19.6781 135.02 29.4581 149.17C29.8181 149.69 30.5282 150.76 30.6982 151.58C30.7782 151.99 30.6281 152.64 30.2381 152.79L28.4881 154.4C27.9581 154.81 27.2081 154.84 26.6581 154.44C25.5581 153.62 24.3981 151.86 24.0881 151.17C19.1681 140.46 9.61814 129.04 8.43814 103.81C8.27814 100.45 8.08814 97.58 10.0581 98.48Z" fill="#B4A890"/>
<path d="M70.4685 184.57C70.4685 184.57 71.4485 182.43 73.8885 183C104.209 190.04 108.609 187.54 124.679 181.81C125.279 181.6 126.519 181.28 127.359 181.38C127.779 181.43 128.079 181.79 128.109 182.21L129.129 184.75C129.359 185.32 129.169 185.99 128.659 186.32C127.609 187 125.659 187.32 124.929 187.54C106.399 193.31 95.7385 192.87 83.0085 190.87C79.6685 190.34 69.0085 186.16 70.4685 184.57Z" fill="#B4A890"/>
<path d="M189.709 98.36C189.709 98.36 187.549 98.65 187.159 101.12C180.179 144.9 180.089 134.9 170.309 149.05C169.949 149.57 169.239 150.64 169.069 151.46C168.989 151.87 169.139 152.52 169.529 152.67L171.279 154.28C171.809 154.69 172.559 154.72 173.109 154.32C174.209 153.5 175.369 151.74 175.679 151.05C180.599 140.34 190.149 128.92 191.329 103.69C191.479 100.33 191.669 97.46 189.709 98.36Z" fill="#B4A890"/>
<path d="M103.688 145.06H104.728L103.708 144.98L103.688 145.06Z" fill="url(#paint0_linear_242_388)"/>
<path d="M147.338 128.36C144.208 126.16 140.498 121.17 143.248 122.51C145.998 123.84 157.038 125.08 160.168 121.95C162.558 119.56 148.238 115.3 141.968 110.33C139.468 108.35 135.278 105.08 134.998 103.41C134.718 101.74 135.888 101.64 140.898 103.17C148.708 105.56 148.678 102.62 151.978 102.28C155.278 101.95 151.788 99.41 148.208 98.08C144.628 96.75 134.608 91.73 134.338 90.4C134.058 89.07 135.638 89.65 137.478 90.63C143.998 94.11 147.298 90.43 145.358 89.72C142.318 88.59 142.418 86.79 136.838 83.25C130.358 79.14 127.078 70.73 126.858 68.21C126.778 67.26 126.638 66.32 126.428 65.39C125.888 63 124.858 59 124.088 59C122.988 59 122.058 70.98 118.558 75.99C114.098 82.38 109.288 83.39 105.988 84.39C102.688 85.39 109.408 84.94 110.858 87.81C112.438 90.92 115.388 88.12 116.828 87.31C118.638 86.29 115.668 89.84 113.248 92.12L83.1683 82.22C79.7483 81.07 80.2283 80.35 76.6283 83.28L60.1483 95.5C58.3183 96.86 57.2383 99.01 57.2383 101.29C57.2383 101.29 57.2983 112.26 57.2383 122.62C52.1083 119.1 55.7783 124.7 53.7383 125.4C53.4183 125.51 52.9783 125.29 50.7283 124.54C47.6283 123.51 43.8483 125.62 46.8883 127.24C52.5783 130.29 40.4083 127.45 41.4183 132.9C41.6883 134.36 46.6283 139.35 50.6283 139.02C65.4083 137.73 53.3983 145.26 64.4483 145.07H64.4583C64.1983 142.06 64.2783 137.54 66.0683 132.82C66.8983 130.64 66.9083 127.47 69.0883 126.89C69.5383 126.77 70.8283 126.48 71.7683 126.25C72.3083 124.4 71.3183 122.09 70.9983 119.98C70.5883 117.35 72.8883 113.69 76.3583 113.09C78.3983 112.73 81.0083 114.55 81.7383 117.08C81.9383 117.78 81.5683 118.37 81.1883 119.17C81.0583 119.44 81.8583 120.79 81.4883 121.55C80.4483 123.67 80.6483 124.9 79.8083 125.42C81.3083 125.88 82.7683 126.34 83.0383 126.43C83.9383 126.74 84.6483 127.07 85.2183 127.41C85.7283 125.27 86.1183 123.63 86.1583 123.36C86.3083 122.49 86.7883 120.7 88.9683 120.12C89.5583 119.96 91.5983 119.51 92.3883 119.3C92.5883 119.25 92.7683 119.19 92.9583 119.13C92.3583 117.13 90.8683 115.71 90.8683 113.21C90.8683 109.59 92.7183 106.13 96.2283 106.32C99.7683 106.51 101.688 109.54 101.218 113.13C100.908 115.49 101.578 116.85 99.9883 118.74C101.378 119.17 102.668 119.57 102.918 119.66C107.438 121.22 107.328 123.36 107.618 124.37C107.648 124.46 107.678 124.93 107.718 125.59C107.988 125.44 108.288 125.31 108.638 125.21C109.228 125.05 111.268 124.6 112.058 124.39C113.028 124.14 113.878 123.76 114.528 123.42C115.408 121.21 113.898 125.43 112.788 116.51C112.708 115.84 111.978 116.26 112.168 114.75C112.508 112.01 114.718 109.92 117.568 110.2C120.048 110.44 122.738 113.01 122.488 116.62C122.308 119.18 122.348 122.74 120.738 122.96C120.238 123.03 120.248 123.65 120.228 124.01C121.388 124.37 122.378 124.68 122.598 124.76C127.118 126.32 127.008 128.46 127.298 129.47C127.388 129.79 126.698 132.77 127.938 136.85C129.438 141.82 125.278 147.23 125.278 147.23L125.238 147.35C127.788 146.89 130.558 146.18 132.958 145.7C164.648 139.36 118.638 137.14 134.518 134.08C145.178 132.03 163.328 141.35 167.638 139.63C171.768 137.97 152.018 131.65 147.338 128.36Z" fill="url(#paint1_linear_242_388)"/>
<path d="M37.4787 106.46C36.1487 105.47 34.0487 105.14 31.6987 105.69C29.3487 106.25 28.1287 107.3 27.6687 107.42C26.3987 107.75 26.1187 108.2 22.1787 104.61C21.4587 103.95 35.7187 102.66 37.8987 103.22C41.6487 104.18 37.2187 105.76 41.7887 105.47C46.5587 105.16 47.9887 105.95 45.7287 108.92C45.0587 109.8 42.1487 109.94 37.4787 106.46Z" fill="url(#paint2_linear_242_388)"/>
<path d="M43.8188 72.74C43.4288 71.13 42.0188 69.53 39.8588 68.46C37.6988 67.39 36.0788 67.41 35.6588 67.21C34.4788 66.65 33.9688 66.82 33.2288 61.54C33.0888 60.57 44.8888 68.7 46.2088 70.52C48.4788 73.66 47.5188 74.56 51.2188 77.26C55.0788 80.07 55.6788 81.59 52.0388 82.43C50.9788 82.67 45.1788 78.4 43.8188 72.74Z" fill="url(#paint3_linear_242_388)"/>
<path d="M109.098 51.03C108.038 52.3 107.598 54.39 108.038 56.76C108.468 59.13 109.458 60.41 109.558 60.87C109.818 62.15 110.248 62.46 106.468 66.21C105.778 66.9 105.218 52.59 105.888 50.44C107.048 46.75 108.338 46.97 108.288 42.39C108.228 37.61 109.088 36.22 111.938 38.63C112.768 39.35 112.818 46.55 109.098 51.03Z" fill="url(#paint4_linear_242_388)"/>
<path d="M150.328 69.3199C148.948 69.4699 147.498 70.3899 146.448 71.9099C145.398 73.4299 145.318 74.6299 145.118 74.9299C144.568 75.7599 144.678 76.1499 140.168 76.2699C139.338 76.2899 146.988 68.1899 148.618 67.3699C151.418 65.9399 152.118 66.7299 154.638 64.1999C157.268 61.5599 158.598 61.2399 159.068 64.0199C159.198 64.8199 155.208 68.7799 150.328 69.3199Z" fill="url(#paint5_linear_242_388)"/>
<path d="M75.0285 58.91C75.5285 57.33 75.1585 55.2299 73.8685 53.1999C72.5785 51.1699 71.1785 50.3499 70.9185 49.9499C70.1985 48.8599 69.6785 48.7399 71.7785 43.8399C72.1585 42.9399 78.0285 56.0099 78.2085 58.2499C78.5185 62.1099 77.2285 62.38 78.9985 66.61C80.8385 71.02 80.5685 72.63 77.0185 71.46C75.9885 71.12 73.2585 64.46 75.0285 58.91Z" fill="url(#paint6_linear_242_388)"/>
<defs>
<linearGradient id="paint0_linear_242_388" x1="104.21" y1="144.979" x2="104.21" y2="145.062" gradientUnits="userSpaceOnUse">
<stop offset="0.0526" stop-color="#610000"/>
<stop offset="0.1087" stop-color="#600201"/>
<stop offset="0.2004" stop-color="#5C1A05"/>
<stop offset="0.3153" stop-color="#542F0D"/>
<stop offset="0.3899" stop-color="#4C3B13"/>
<stop offset="0.4316" stop-color="#4F3F19"/>
<stop offset="0.4994" stop-color="#574C2A"/>
<stop offset="0.5672" stop-color="#605E43"/>
<stop offset="0.7116" stop-color="#5F5E46"/>
<stop offset="0.7716" stop-color="#565F5A"/>
<stop offset="0.9061" stop-color="#34618A"/>
<stop offset="0.954" stop-color="#17629E"/>
</linearGradient>
<linearGradient id="paint1_linear_242_388" x1="104.776" y1="58.989" x2="104.776" y2="147.347" gradientUnits="userSpaceOnUse">
<stop offset="0.0526" stop-color="#610000"/>
<stop offset="0.1087" stop-color="#600201"/>
<stop offset="0.2004" stop-color="#5C1A05"/>
<stop offset="0.3153" stop-color="#542F0D"/>
<stop offset="0.3899" stop-color="#4C3B13"/>
<stop offset="0.4316" stop-color="#4F3F19"/>
<stop offset="0.4994" stop-color="#574C2A"/>
<stop offset="0.5672" stop-color="#605E43"/>
<stop offset="0.7116" stop-color="#5F5E46"/>
<stop offset="0.7716" stop-color="#565F5A"/>
<stop offset="0.9061" stop-color="#34618A"/>
<stop offset="0.954" stop-color="#17629E"/>
</linearGradient>
<linearGradient id="paint2_linear_242_388" x1="40.6357" y1="100.141" x2="29.0661" y2="111.581" gradientUnits="userSpaceOnUse">
<stop offset="0.1927" stop-color="#610000"/>
<stop offset="0.5358" stop-color="#962718"/>
<stop offset="0.9187" stop-color="#DA5225"/>
</linearGradient>
<linearGradient id="paint3_linear_242_388" x1="53.6353" y1="71.0166" x2="34.2075" y2="72.6975" gradientUnits="userSpaceOnUse">
<stop offset="0.1927" stop-color="#610000"/>
<stop offset="0.5358" stop-color="#962718"/>
<stop offset="0.9187" stop-color="#DA5225"/>
</linearGradient>
<linearGradient id="paint4_linear_242_388" x1="105.585" y1="51.8675" x2="112.396" y2="51.8675" gradientUnits="userSpaceOnUse">
<stop offset="0.1927" stop-color="#610000"/>
<stop offset="0.5358" stop-color="#962718"/>
<stop offset="0.9187" stop-color="#DA5225"/>
</linearGradient>
<linearGradient id="paint5_linear_242_388" x1="143.297" y1="67.5753" x2="156.013" y2="72.3127" gradientUnits="userSpaceOnUse">
<stop offset="0.1927" stop-color="#610000"/>
<stop offset="0.5358" stop-color="#962718"/>
<stop offset="0.9187" stop-color="#DA5225"/>
</linearGradient>
<linearGradient id="paint6_linear_242_388" x1="84.3197" y1="62.523" x2="66.84" y2="53.8787" gradientUnits="userSpaceOnUse">
<stop offset="0.1927" stop-color="#610000"/>
<stop offset="0.5358" stop-color="#962718"/>
<stop offset="0.9187" stop-color="#DA5225"/>
</linearGradient>
</defs>
</svg>
