<?xml version="1.0" encoding="utf-8"?>
<!-- Generator: Adobe Illustrator 27.3.1, SVG Export Plug-In . SVG Version: 6.00 Build 0)  -->
<svg version="1.1" id="Layer_1" xmlns="http://www.w3.org/2000/svg" xmlns:xlink="http://www.w3.org/1999/xlink" x="0px" y="0px"
	 viewBox="0 0 160.52 221.6" style="enable-background:new 0 0 160.52 221.6;" xml:space="preserve">
<style type="text/css">
	.st0{clip-path:url(#SVGID_00000026849249025092939140000004485171473480962729_);fill:#DA5225;}
	.st1{clip-path:url(#SVGID_00000026849249025092939140000004485171473480962729_);fill:#605E43;}
	.st2{clip-path:url(#SVGID_00000026849249025092939140000004485171473480962729_);fill:#E0AC0F;}
	.st3{clip-path:url(#SVGID_00000026849249025092939140000004485171473480962729_);fill:#610000;}
	.st4{clip-path:url(#SVGID_00000026849249025092939140000004485171473480962729_);fill:#456D90;}
	.st5{clip-path:url(#SVGID_00000026849249025092939140000004485171473480962729_);fill:#AB9F89;}
</style>
<g>
	<defs>
		<rect id="SVGID_1_" x="0" y="0" width="160.52" height="221.6"/>
	</defs>
	<clipPath id="SVGID_00000136397271388538765720000017234517095564862341_">
		<use xlink:href="#SVGID_1_"  style="overflow:visible;"/>
	</clipPath>
	<path style="clip-path:url(#SVGID_00000136397271388538765720000017234517095564862341_);fill:#DA5225;" d="M86.63,207.19
		c1.23,0,2.22-1.28,2.22-2.85c0,0-1.07-18.11,0-32.26c0.46-6.13,1.25-43.44,0.44-50.23c-0.8-6.78-0.44-60.48-0.44-60.48
		c0-1.57-1-2.85-2.22-2.85h-1.96c-1.23,0-2.22,1.28-2.22,2.85c0,0,1.24,32.72,0,67.59c-0.63,17.58-0.18,22.59-0.53,33.53
		c-0.32,9.82,0.53,41.84,0.53,41.84c0,1.57,0.99,2.85,2.22,2.85H86.63z"/>
	<path style="clip-path:url(#SVGID_00000136397271388538765720000017234517095564862341_);fill:#DA5225;" d="M85.29,221.6
		c1.77,0,3.2-1.43,3.2-3.2v-5.93c0-1.77-1.43-3.2-3.2-3.2c-1.77,0-3.2,1.43-3.2,3.2v5.93C82.09,220.17,83.52,221.6,85.29,221.6"/>
	<path style="clip-path:url(#SVGID_00000136397271388538765720000017234517095564862341_);fill:#605E43;" d="M94.39,41.45
		c-1.23,0-2.22,1.28-2.22,2.85c0,0,1.07,18.11,0,32.26c-0.46,6.13-1.25,43.44-0.44,50.23c0.8,6.78,0.44,60.48,0.44,60.48
		c0,1.57,1,2.85,2.22,2.85h1.96c1.23,0,2.22-1.28,2.22-2.85c0,0-1.24-32.72,0-67.59c0.63-17.58,0.18-22.59,0.53-33.53
		c0.32-9.82-0.53-41.84-0.53-41.84c0-1.57-0.99-2.85-2.22-2.85H94.39z"/>
	<path style="clip-path:url(#SVGID_00000136397271388538765720000017234517095564862341_);fill:#605E43;" d="M95.27,205.04
		c1.77,0,3.2-1.43,3.2-3.2v-5.93c0-1.77-1.43-3.2-3.2-3.2c-1.77,0-3.2,1.43-3.2,3.2v5.93C92.07,203.61,93.5,205.04,95.27,205.04"/>
	<path style="clip-path:url(#SVGID_00000136397271388538765720000017234517095564862341_);fill:#E0AC0F;" d="M104.73,31.42
		c-1.23,0-2.22,1.28-2.22,2.85c0,0,1.07,18.11,0,32.26c-0.46,6.13-1.25,43.44-0.44,50.23c0.8,6.78,0.44,60.48,0.44,60.48
		c0,1.57,1,2.85,2.22,2.85h1.96c1.23,0,2.22-1.28,2.22-2.85c0,0-1.24-32.72,0-67.59c0.63-17.58,0.18-22.59,0.53-33.53
		c0.32-9.82-0.53-41.84-0.53-41.84c0-1.57-0.99-2.85-2.22-2.85H104.73z"/>
	<path style="clip-path:url(#SVGID_00000136397271388538765720000017234517095564862341_);fill:#E0AC0F;" d="M105.62,195.01
		c1.77,0,3.2-1.43,3.2-3.2v-5.93c0-1.77-1.43-3.2-3.2-3.2c-1.77,0-3.2,1.43-3.2,3.2v5.93C102.42,193.58,103.85,195.01,105.62,195.01
		"/>
	<path style="clip-path:url(#SVGID_00000136397271388538765720000017234517095564862341_);fill:#610000;" d="M116.84,172.22
		c1.23,0,2.22-1.28,2.22-2.85c0,0-1.07-18.11,0-32.26c0.46-6.13,1.25-43.44,0.44-50.23c-0.8-6.78-0.44-60.48-0.44-60.48
		c0-1.57-1-2.85-2.22-2.85h-1.96c-1.23,0-2.22,1.28-2.22,2.85c0,0,1.24,32.72,0,67.59c-0.63,17.58-0.18,22.59-0.53,33.53
		c-0.32,9.82,0.53,41.84,0.53,41.84c0,1.57,0.99,2.85,2.22,2.85H116.84z"/>
	<path style="clip-path:url(#SVGID_00000136397271388538765720000017234517095564862341_);fill:#610000;" d="M115.5,186.63
		c1.77,0,3.2-1.43,3.2-3.2v-5.93c0-1.77-1.43-3.2-3.2-3.2c-1.77,0-3.2,1.43-3.2,3.2v5.93C112.3,185.19,113.74,186.63,115.5,186.63"
		/>
	<path style="clip-path:url(#SVGID_00000136397271388538765720000017234517095564862341_);fill:#456D90;" d="M125.41,18.1
		c-1.23,0-2.22,1.28-2.22,2.85c0,0,1.07,18.11,0,32.26c-0.46,6.13-1.25,43.44-0.44,50.23c0.8,6.78,0.44,60.48,0.44,60.48
		c0,1.57,1,2.85,2.22,2.85h1.96c1.23,0,2.22-1.28,2.22-2.85c0,0-1.24-32.72,0-67.59c0.63-17.58,0.18-22.59,0.53-33.53
		c0.32-9.82-0.53-41.84-0.53-41.84c0-1.57-0.99-2.85-2.22-2.85H125.41z"/>
	<path style="clip-path:url(#SVGID_00000136397271388538765720000017234517095564862341_);fill:#456D90;" d="M126.3,181.68
		c1.77,0,3.2-1.43,3.2-3.2v-5.93c0-1.77-1.43-3.2-3.2-3.2c-1.77,0-3.2,1.43-3.2,3.2v5.93C123.1,180.25,124.53,181.68,126.3,181.68"
		/>
	<path style="clip-path:url(#SVGID_00000136397271388538765720000017234517095564862341_);fill:#AB9F89;" d="M135.76,12.71
		c-1.23,0-2.22,1.28-2.22,2.85c0,0,1.07,18.11,0,32.26c-0.46,6.13-1.25,43.44-0.44,50.23c0.8,6.78,0.44,60.48,0.44,60.48
		c0,1.57,1,2.85,2.22,2.85h1.96c1.23,0,2.22-1.28,2.22-2.85c0,0-1.24-32.72,0-67.59c0.63-17.58,0.18-22.59,0.53-33.53
		c0.32-9.82-0.53-41.84-0.53-41.84c0-1.57-0.99-2.85-2.22-2.85H135.76z"/>
	<path style="clip-path:url(#SVGID_00000136397271388538765720000017234517095564862341_);fill:#AB9F89;" d="M136.65,176.3
		c1.77,0,3.2-1.43,3.2-3.2v-5.93c0-1.77-1.43-3.2-3.2-3.2c-1.77,0-3.2,1.43-3.2,3.2v5.93C133.45,174.87,134.88,176.3,136.65,176.3"
		/>
	<path style="clip-path:url(#SVGID_00000136397271388538765720000017234517095564862341_);fill:#605E43;" d="M145.39,9.06
		c-1.23,0-2.22,1.28-2.22,2.85c0,0,1.07,18.11,0,32.26c-0.46,6.13-1.25,43.44-0.44,50.23c0.8,6.78,0.44,60.48,0.44,60.48
		c0,1.57,1,2.85,2.22,2.85h1.96c1.23,0,2.22-1.28,2.22-2.85c0,0-1.24-32.72,0-67.59c0.63-17.58,0.18-22.59,0.53-33.53
		c0.32-9.82-0.53-41.84-0.53-41.84c0-1.57-0.99-2.85-2.22-2.85H145.39z"/>
	<path style="clip-path:url(#SVGID_00000136397271388538765720000017234517095564862341_);fill:#605E43;" d="M146.28,172.64
		c1.77,0,3.2-1.43,3.2-3.2v-5.93c0-1.77-1.43-3.2-3.2-3.2c-1.77,0-3.2,1.43-3.2,3.2v5.93C143.07,171.21,144.51,172.64,146.28,172.64
		"/>
	<path style="clip-path:url(#SVGID_00000136397271388538765720000017234517095564862341_);fill:#DA5225;" d="M155.74,4.45
		c-1.23,0-2.22,1.28-2.22,2.85c0,0,1.07,18.11,0,32.26c-0.46,6.13-1.25,43.44-0.44,50.23c0.8,6.78,0.44,60.48,0.44,60.48
		c0,1.57,1,2.85,2.22,2.85h1.96c1.23,0,2.22-1.28,2.22-2.85c0,0-1.24-32.72,0-67.59c0.63-17.58,0.18-22.59,0.53-33.53
		c0.32-9.82-0.53-41.84-0.53-41.84c0-1.57-0.99-2.85-2.22-2.85H155.74z"/>
	<path style="clip-path:url(#SVGID_00000136397271388538765720000017234517095564862341_);fill:#DA5225;" d="M156.62,168.04
		c1.77,0,3.2-1.43,3.2-3.2v-5.93c0-1.77-1.43-3.2-3.2-3.2c-1.77,0-3.2,1.43-3.2,3.2v5.93C153.42,166.6,154.86,168.04,156.62,168.04"
		/>
	<path style="clip-path:url(#SVGID_00000136397271388538765720000017234517095564862341_);fill:#610000;" d="M73.9,202.74
		c-1.23,0-2.22-1.28-2.22-2.85c0,0,1.07-18.11,0-32.26c-0.46-6.13-1.25-43.44-0.44-50.23c0.8-6.78,0.44-60.48,0.44-60.48
		c0-1.57,1-2.85,2.22-2.85h1.96c1.23,0,2.22,1.28,2.22,2.85c0,0-1.24,32.72,0,67.59c0.63,17.58,0.18,22.59,0.53,33.53
		c0.32,9.82-0.53,41.84-0.53,41.84c0,1.57-0.99,2.85-2.22,2.85H73.9z"/>
	<path style="clip-path:url(#SVGID_00000136397271388538765720000017234517095564862341_);fill:#610000;" d="M75.23,217.15
		c-1.77,0-3.2-1.43-3.2-3.2v-5.93c0-1.77,1.43-3.2,3.2-3.2c1.77,0,3.2,1.43,3.2,3.2v5.93C78.43,215.72,77,217.15,75.23,217.15"/>
	<path style="clip-path:url(#SVGID_00000136397271388538765720000017234517095564862341_);fill:#AB9F89;" d="M66.14,37
		c1.23,0,2.22,1.28,2.22,2.85c0,0-1.07,18.11,0,32.26c0.46,6.13,1.25,43.44,0.44,50.23c-0.8,6.78-0.44,60.48-0.44,60.48
		c0,1.57-1,2.85-2.22,2.85h-1.96c-1.23,0-2.22-1.28-2.22-2.85c0,0,1.24-32.72,0-67.59c-0.63-17.58-0.18-22.59-0.53-33.53
		c-0.32-9.82,0.53-41.84,0.53-41.84c0-1.57,0.99-2.85,2.22-2.85H66.14z"/>
	<path style="clip-path:url(#SVGID_00000136397271388538765720000017234517095564862341_);fill:#AB9F89;" d="M65.25,200.59
		c-1.77,0-3.2-1.43-3.2-3.2v-5.93c0-1.77,1.43-3.2,3.2-3.2c1.77,0,3.2,1.43,3.2,3.2v5.93C68.45,199.16,67.02,200.59,65.25,200.59"/>
	<path style="clip-path:url(#SVGID_00000136397271388538765720000017234517095564862341_);fill:#605E43;" d="M55.79,26.98
		c1.23,0,2.22,1.28,2.22,2.85c0,0-1.07,18.11,0,32.26c0.46,6.13,1.25,43.44,0.44,50.23c-0.8,6.78-0.44,60.48-0.44,60.48
		c0,1.57-1,2.85-2.22,2.85h-1.96c-1.23,0-2.22-1.28-2.22-2.85c0,0,1.24-32.72,0-67.59c-0.63-17.58-0.18-22.59-0.53-33.53
		c-0.32-9.82,0.53-41.84,0.53-41.84c0-1.57,0.99-2.85,2.22-2.85H55.79z"/>
	<path style="clip-path:url(#SVGID_00000136397271388538765720000017234517095564862341_);fill:#605E43;" d="M54.9,190.56
		c-1.77,0-3.2-1.43-3.2-3.2v-5.93c0-1.77,1.43-3.2,3.2-3.2c1.77,0,3.2,1.43,3.2,3.2v5.93C58.11,189.13,56.67,190.56,54.9,190.56"/>
	<path style="clip-path:url(#SVGID_00000136397271388538765720000017234517095564862341_);fill:#456D90;" d="M43.68,167.77
		c-1.23,0-2.22-1.28-2.22-2.85c0,0,1.07-18.11,0-32.26c-0.46-6.13-1.25-43.44-0.44-50.23c0.8-6.78,0.44-60.48,0.44-60.48
		c0-1.57,1-2.85,2.22-2.85h1.96c1.23,0,2.22,1.28,2.22,2.85c0,0-1.24,32.72,0,67.59c0.63,17.58,0.18,22.59,0.53,33.53
		c0.32,9.82-0.53,41.84-0.53,41.84c0,1.57-0.99,2.85-2.22,2.85H43.68z"/>
	<path style="clip-path:url(#SVGID_00000136397271388538765720000017234517095564862341_);fill:#456D90;" d="M45.02,182.18
		c-1.77,0-3.2-1.43-3.2-3.2v-5.93c0-1.77,1.43-3.2,3.2-3.2c1.77,0,3.2,1.43,3.2,3.2v5.93C48.22,180.74,46.79,182.18,45.02,182.18"/>
	<path style="clip-path:url(#SVGID_00000136397271388538765720000017234517095564862341_);fill:#E0AC0F;" d="M35.11,13.65
		c1.23,0,2.22,1.28,2.22,2.85c0,0-1.07,18.11,0,32.26c0.46,6.13,1.25,43.44,0.44,50.23c-0.8,6.78-0.44,60.48-0.44,60.48
		c0,1.57-1,2.85-2.22,2.85h-1.96c-1.23,0-2.22-1.28-2.22-2.85c0,0,1.24-32.72,0-67.59c-0.63-17.58-0.18-22.59-0.53-33.53
		c-0.32-9.82,0.53-41.84,0.53-41.84c0-1.57,0.99-2.85,2.22-2.85H35.11z"/>
	<path style="clip-path:url(#SVGID_00000136397271388538765720000017234517095564862341_);fill:#E0AC0F;" d="M34.22,177.23
		c-1.77,0-3.2-1.43-3.2-3.2v-5.93c0-1.77,1.43-3.2,3.2-3.2c1.77,0,3.2,1.43,3.2,3.2v5.93C37.42,175.8,35.99,177.23,34.22,177.23"/>
	<path style="clip-path:url(#SVGID_00000136397271388538765720000017234517095564862341_);fill:#610000;" d="M24.76,8.26
		c1.23,0,2.22,1.28,2.22,2.85c0,0-1.07,18.11,0,32.26c0.46,6.13,1.25,43.44,0.44,50.23c-0.8,6.78-0.44,60.48-0.44,60.48
		c0,1.57-1,2.85-2.22,2.85H22.8c-1.23,0-2.22-1.28-2.22-2.85c0,0,1.24-32.72,0-67.59c-0.63-17.58-0.18-22.59-0.53-33.53
		c-0.32-9.82,0.53-41.84,0.53-41.84c0-1.57,0.99-2.85,2.22-2.85H24.76z"/>
	<path style="clip-path:url(#SVGID_00000136397271388538765720000017234517095564862341_);fill:#610000;" d="M23.88,171.85
		c-1.77,0-3.2-1.43-3.2-3.2v-5.93c0-1.77,1.43-3.2,3.2-3.2c1.77,0,3.2,1.43,3.2,3.2v5.93C27.08,170.42,25.64,171.85,23.88,171.85"/>
	<path style="clip-path:url(#SVGID_00000136397271388538765720000017234517095564862341_);fill:#DA5225;" d="M15.13,4.61
		c1.23,0,2.22,1.28,2.22,2.85c0,0-1.07,18.11,0,32.26c0.46,6.13,1.25,43.44,0.44,50.23c-0.8,6.78-0.44,60.48-0.44,60.48
		c0,1.57-1,2.85-2.22,2.85h-1.96c-1.23,0-2.22-1.28-2.22-2.85c0,0,1.24-32.72,0-67.59c-0.63-17.58-0.18-22.59-0.53-33.53
		c-0.32-9.82,0.53-41.84,0.53-41.84c0-1.57,0.99-2.85,2.22-2.85H15.13z"/>
	<path style="clip-path:url(#SVGID_00000136397271388538765720000017234517095564862341_);fill:#DA5225;" d="M14.25,168.19
		c-1.77,0-3.2-1.43-3.2-3.2v-5.93c0-1.77,1.43-3.2,3.2-3.2c1.77,0,3.2,1.43,3.2,3.2v5.93C17.45,166.76,16.01,168.19,14.25,168.19"/>
	<path style="clip-path:url(#SVGID_00000136397271388538765720000017234517095564862341_);fill:#AB9F89;" d="M4.79,0
		c1.23,0,2.22,1.28,2.22,2.85c0,0-1.07,18.11,0,32.26c0.46,6.13,1.25,43.44,0.44,50.23c-0.8,6.78-0.44,60.48-0.44,60.48
		c0,1.57-1,2.85-2.22,2.85H2.83c-1.23,0-2.22-1.28-2.22-2.85c0,0,1.24-32.72,0-67.59c-0.63-17.58-0.18-22.59-0.53-33.53
		C-0.25,34.87,0.61,2.85,0.61,2.85C0.61,1.28,1.6,0,2.83,0H4.79z"/>
	<path style="clip-path:url(#SVGID_00000136397271388538765720000017234517095564862341_);fill:#AB9F89;" d="M3.9,163.59
		c-1.77,0-3.2-1.43-3.2-3.2v-5.93c0-1.77,1.43-3.2,3.2-3.2s3.2,1.43,3.2,3.2v5.93C7.1,162.15,5.67,163.59,3.9,163.59"/>
</g>
</svg>
